<svg width="189" height="28" viewBox="0 0 189 28" fill="none" xmlns="http://www.w3.org/2000/svg">
<path d="M11.928 19.808H5.256L4.152 23H0.624L6.648 6.224H10.56L16.584 23H13.032L11.928 19.808ZM11.016 17.12L8.592 10.112L6.168 17.12H11.016ZM27.4757 23L23.7797 16.472H22.1957V23H18.8357V6.248H25.1237C26.4197 6.248 27.5237 6.48 28.4357 6.944C29.3477 7.392 30.0277 8.008 30.4757 8.792C30.9397 9.56 31.1717 10.424 31.1717 11.384C31.1717 12.488 30.8517 13.488 30.2117 14.384C29.5717 15.264 28.6197 15.872 27.3557 16.208L31.3637 23H27.4757ZM22.1957 13.952H25.0037C25.9157 13.952 26.5957 13.736 27.0437 13.304C27.4917 12.856 27.7157 12.24 27.7157 11.456C27.7157 10.688 27.4917 10.096 27.0437 9.68C26.5957 9.248 25.9157 9.032 25.0037 9.032H22.1957V13.952ZM45.6107 6.248V8.96H41.1467V23H37.7867V8.96H33.3227V6.248H45.6107ZM57.0143 0.079999L50.6543 27.752H45.5422L51.9263 0.079999H57.0143ZM57.2882 14.6C57.2882 12.936 57.6322 11.456 58.3202 10.16C59.0242 8.848 59.9842 7.824 61.2002 7.088C62.4322 6.352 63.8082 5.984 65.3282 5.984C67.2482 5.984 68.8642 6.432 70.1762 7.328C71.4882 8.224 72.4482 9.48 73.0562 11.096H71.8082C71.3282 9.816 70.5282 8.808 69.4082 8.072C68.3042 7.32 66.9442 6.944 65.3282 6.944C64.0322 6.944 62.8562 7.256 61.8002 7.88C60.7442 8.488 59.9122 9.376 59.3042 10.544C58.6962 11.696 58.3922 13.048 58.3922 14.6C58.3922 16.136 58.6962 17.48 59.3042 18.632C59.9122 19.768 60.7442 20.648 61.8002 21.272C62.8562 21.896 64.0322 22.208 65.3282 22.208C66.9442 22.208 68.3042 21.84 69.4082 21.104C70.5282 20.352 71.3282 19.336 71.8082 18.056H73.0562C72.4482 19.672 71.4882 20.928 70.1762 21.824C68.8642 22.72 67.2482 23.168 65.3282 23.168C63.8082 23.168 62.4322 22.808 61.2002 22.088C59.9842 21.352 59.0242 20.336 58.3202 19.04C57.6322 17.728 57.2882 16.248 57.2882 14.6ZM88.4289 6.152V23H87.3489V14.84H77.5089V23H76.4289V6.152H77.5089V13.928H87.3489V6.152H88.4289ZM93.4699 6.152V23H92.3899V6.152H93.4699ZM106.741 6.152V7.064H101.941V23H100.861V7.064H96.0609V6.152H106.741ZM110.392 7.064V14.096H117.112V15.008H110.392V22.088H117.832V23H109.312V6.152H117.832V7.064H110.392ZM120.429 14.6C120.429 12.936 120.773 11.456 121.461 10.16C122.165 8.848 123.125 7.824 124.341 7.088C125.573 6.352 126.949 5.984 128.469 5.984C130.389 5.984 132.005 6.432 133.317 7.328C134.629 8.224 135.589 9.48 136.197 11.096H134.949C134.469 9.816 133.669 8.808 132.549 8.072C131.445 7.32 130.085 6.944 128.469 6.944C127.173 6.944 125.997 7.256 124.941 7.88C123.885 8.488 123.053 9.376 122.445 10.544C121.837 11.696 121.533 13.048 121.533 14.6C121.533 16.136 121.837 17.48 122.445 18.632C123.053 19.768 123.885 20.648 124.941 21.272C125.997 21.896 127.173 22.208 128.469 22.208C130.085 22.208 131.445 21.84 132.549 21.104C133.669 20.352 134.469 19.336 134.949 18.056H136.197C135.589 19.672 134.629 20.928 133.317 21.824C132.005 22.72 130.389 23.168 128.469 23.168C126.949 23.168 125.573 22.808 124.341 22.088C123.125 21.352 122.165 20.336 121.461 19.04C120.773 17.728 120.429 16.248 120.429 14.6ZM148.882 6.152V7.064H144.082V23H143.002V7.064H138.202V6.152H148.882ZM152.436 6.152V16.688C152.436 18.592 152.868 19.992 153.732 20.888C154.596 21.768 155.772 22.208 157.26 22.208C158.732 22.208 159.892 21.768 160.74 20.888C161.588 20.008 162.012 18.608 162.012 16.688V6.152H163.092V16.664C163.092 18.856 162.564 20.488 161.508 21.56C160.452 22.632 159.036 23.168 157.26 23.168C155.484 23.168 154.052 22.632 152.964 21.56C151.892 20.472 151.356 18.84 151.356 16.664V6.152H152.436ZM176.017 23L171.697 15.824H171.601H168.001V23H166.921V6.152H171.553C173.425 6.152 174.825 6.592 175.753 7.472C176.697 8.352 177.169 9.52 177.169 10.976C177.169 12.272 176.801 13.344 176.065 14.192C175.345 15.024 174.289 15.536 172.897 15.728L177.313 23H176.017ZM168.001 14.912H171.601C173.089 14.912 174.201 14.552 174.937 13.832C175.673 13.112 176.041 12.16 176.041 10.976C176.041 8.4 174.545 7.112 171.553 7.112H168.001V14.912ZM181.454 7.064V14.096H188.174V15.008H181.454V22.088H188.894V23H180.374V6.152H188.894V7.064H181.454Z" fill="#2E2E2E"/>
</svg>
